<svg width="22" height="16" viewBox="0 0 22 16" fill="none" xmlns="http://www.w3.org/2000/svg">
<path d="M11 0C17.0751 0 22 4.92487 22 11V16H20V11C20 6.1182 16.1132 2.14421 11.2654 2.00384L11 2C6.1182 2 2.14421 5.88681 2.00384 10.7346L2 11V16H0V11C0 4.92487 4.92487 0 11 0ZM11 4C14.866 4 18 7.134 18 11V16H16V11C16 8.3112 13.8777 6.1182 11.2169 6.0046L11 6C8.31124 6 6.11818 8.1223 6.00462 10.7831L6 11V16H4V11C4 7.134 7.13401 4 11 4ZM11 8C12.6569 8 14 9.3431 14 11V16H12V11C12 10.4872 11.614 10.0645 11.1166 10.0067L11 10C10.4872 10 10.0645 10.386 10.0067 10.8834L10 11V16H8V11C8 9.3431 9.3431 8 11 8Z" fill="#4338CA"/>
</svg>
