<svg width="16" height="23" viewBox="0 0 16 23" fill="none" xmlns="http://www.w3.org/2000/svg">
<path d="M11.5018 18.5447C10.8432 20.1241 9.5794 21.388 8 22.0466C6.4206 21.388 5.15679 20.1241 4.49816 18.5447H6.7575C7.0838 19.0333 7.5051 19.4571 8 19.788C8.4949 19.4571 8.9162 19.0333 9.2425 18.5447H11.5018ZM14 13.3495L16 15.6177V17.5447H0V15.6177L2 13.3495V7.54479C2 4.06154 4.50442 1.09823 8 0C11.4956 1.09823 14 4.06154 14 7.54479V13.3495ZM13.2692 15.5447L12 14.1053V7.54479C12 5.22695 10.4292 3.11432 8 2.12385C5.57078 3.11432 4 5.22695 4 7.54479V14.1053L2.73076 15.5447H13.2692ZM8 9.54474C6.8954 9.54474 6 8.64934 6 7.54479C6 6.44022 6.8954 5.54479 8 5.54479C9.1046 5.54479 10 6.44022 10 7.54479C10 8.64934 9.1046 9.54474 8 9.54474Z" fill="#4338CA"/>
</svg>
