<svg width="18" height="19" viewBox="0 0 18 19" fill="none" xmlns="http://www.w3.org/2000/svg">
<path d="M14 4C13.4477 4 13 3.55228 13 3C13 2.44772 13.4477 2 14 2C14.5523 2 15 2.44772 15 3C15 3.55228 14.5523 4 14 4ZM14 6C15.6569 6 17 4.65685 17 3C17 1.34315 15.6569 0 14 0C12.3431 0 11 1.34315 11 3C11 4.65685 12.3431 6 14 6ZM4 1C1.79086 1 0 2.79086 0 5V7H2V5C2 3.89543 2.89543 3 4 3H7V1H4ZM14 19C16.2091 19 18 17.2091 18 15V13H16V15C16 16.1046 15.1046 17 14 17H11V19H14ZM5 11C5 10.4477 4.55228 10 4 10C3.44772 10 3 10.4477 3 11C3 11.5523 3.44772 12 4 12C4.55228 12 5 11.5523 5 11ZM7 11C7 12.6569 5.65685 14 4 14C2.34315 14 1 12.6569 1 11C1 9.3431 2.34315 8 4 8C5.65685 8 7 9.3431 7 11ZM14 9C12.8954 9 12 9.8954 12 11H10C10 8.7909 11.7909 7 14 7C16.2091 7 18 8.7909 18 11H16C16 9.8954 15.1046 9 14 9ZM2 19C2 17.8954 2.89543 17 4 17C5.10457 17 6 17.8954 6 19H8C8 16.7909 6.20914 15 4 15C1.79086 15 0 16.7909 0 19H2Z" fill="#4338CA"/>
</svg>
