<svg width="18" height="22" viewBox="0 0 18 22" fill="none" xmlns="http://www.w3.org/2000/svg">
<path d="M4.05025 7.77817L9 2.82843L13.9497 7.77817C16.6834 10.5118 16.6834 14.944 13.9497 17.6776C11.2161 20.4113 6.78392 20.4113 4.05025 17.6776C1.31658 14.944 1.31658 10.5118 4.05025 7.77817ZM15.364 6.36397L9 0L2.63604 6.36397C-0.87868 9.87864 -0.87868 15.5771 2.63604 19.0918C6.15076 22.6066 11.8492 22.6066 15.364 19.0918C18.8787 15.5771 18.8787 9.87864 15.364 6.36397ZM13.2427 9.90285L11.8285 8.48863L4.7574 15.5596L6.17161 16.9739L13.2427 9.90285ZM5.11095 10.9634C5.69674 11.5492 6.64648 11.5492 7.2323 10.9634C7.8181 10.3777 7.8181 9.42797 7.2323 8.84218C6.64648 8.25639 5.69674 8.25639 5.11095 8.84218C4.52516 9.42797 4.52516 10.3777 5.11095 10.9634ZM12.8891 16.6203C12.3033 17.2061 11.3536 17.2061 10.7678 16.6203C10.182 16.0345 10.182 15.0848 10.7678 14.499C11.3536 13.9132 12.3033 13.9132 12.8891 14.499C13.4749 15.0848 13.4749 16.0345 12.8891 16.6203Z" fill="#4338CA"/>
</svg>
